<?xml version="1.0" encoding="UTF-8"?>
<svg version="1.1" xmlns="http://www.w3.org/2000/svg" width="1024" height="1024">
<path d="M0 0 C337.92 0 675.84 0 1024 0 C1024 337.92 1024 675.84 1024 1024 C686.08 1024 348.16 1024 0 1024 C0 686.08 0 348.16 0 0 Z " fill="#FEFEFE" transform="translate(0,0)"/>
<path d="M0 0 C1.90803922 -0.00576172 1.90803922 -0.00576172 3.85462469 -0.01163983 C5.25361603 -0.01085973 6.65260732 -0.00998097 8.05159855 -0.00901413 C9.54766496 -0.01159999 11.04373068 -0.01461377 12.53979546 -0.01801753 C16.64326654 -0.02606505 20.74672011 -0.02787585 24.85019815 -0.028615 C29.27919346 -0.03046952 33.70817976 -0.03801895 38.13716984 -0.04475021 C47.81933778 -0.05831895 57.50150157 -0.06435622 67.18367743 -0.06876087 C73.23378922 -0.07152625 79.28389941 -0.07576419 85.33401012 -0.08026505 C102.09723243 -0.09245672 118.86045347 -0.10275564 135.62368011 -0.10614014 C136.69611977 -0.1063597 137.76855942 -0.10657927 138.87349725 -0.10680549 C140.48593278 -0.10713291 140.48593278 -0.10713291 142.13094276 -0.10746694 C144.30908962 -0.1079104 146.48723648 -0.10835696 148.66538334 -0.10880661 C149.74581164 -0.10902804 150.82623994 -0.10924947 151.93940849 -0.10947761 C169.43306081 -0.11342279 186.92667141 -0.13086873 204.42030763 -0.15416613 C222.39684542 -0.1779126 240.37336231 -0.19034352 258.34991604 -0.19150805 C268.43649892 -0.19242306 278.52302744 -0.19813118 288.6095953 -0.21632767 C297.20142004 -0.2317733 305.79317364 -0.23682295 314.38500964 -0.22858956 C318.76369523 -0.22469857 323.14223776 -0.22553623 327.52090549 -0.23964691 C331.54004826 -0.25247974 335.55894183 -0.25110712 339.57808471 -0.2390562 C341.02162542 -0.23711527 342.46518437 -0.24010212 343.90869956 -0.24890056 C376.51722399 -0.43485328 408.15180161 12.39496882 431.49863529 35.13142776 C432.39066654 35.96158401 433.28269779 36.79174026 434.20176029 37.64705276 C456.76210588 59.19911475 470.61767081 89.93960706 471.59332609 121.16163623 C471.63278061 124.62288277 471.64153067 128.08290387 471.63907719 131.54437637 C471.64166619 132.88002675 471.64468082 134.21567635 471.64808059 135.5513249 C471.65609117 139.19756518 471.65793681 142.84378571 471.65867805 146.49003375 C471.66053906 150.43232214 471.66809161 154.37460054 471.67481327 158.31688309 C471.68835514 166.9267948 471.69441492 175.53670183 471.69882393 184.14662242 C471.70159358 189.53092277 471.70583224 194.91522134 471.7103281 200.29952049 C471.72251572 215.23052069 471.73281579 230.16151947 471.73620319 245.09252453 C471.73642276 246.0468673 471.73664233 247.00121006 471.73686855 247.98447231 C471.73708682 248.94099568 471.7373051 249.89751905 471.73752999 250.88302797 C471.73797345 252.82105251 471.73842001 254.75907705 471.73886967 256.69710159 C471.7390911 257.65841248 471.73931253 258.61972337 471.73954067 259.61016489 C471.74348496 275.17134405 471.76093002 290.73247628 471.78422919 306.29363733 C471.80800089 322.30067317 471.8204077 338.30768552 471.82157111 354.31473929 C471.82248465 363.28969702 471.8281554 372.26459359 471.84639072 381.23953438 C471.86187052 388.88478394 471.86686611 396.52995344 471.85865262 404.17521571 C471.8547737 408.06823664 471.85553879 411.96109674 471.86970997 415.85409737 C471.9351403 434.91630619 471.64570145 453.61241395 465.99863529 472.00642776 C465.75073246 472.81612015 465.50282963 473.62581253 465.24741459 474.46004105 C460.09255223 490.25939879 451.64239461 504.82982661 440.49863529 517.13142776 C440.00137943 517.68234085 439.50412357 518.23325394 438.99179935 518.80086136 C424.77867288 534.28285685 407.87482962 545.35066736 388.31113529 552.88142776 C387.63083256 553.15116409 386.95052982 553.42090042 386.24961185 553.69881058 C366.51283012 560.90571287 346.29700184 560.71775581 325.61231256 560.65432644 C321.1882214 560.64517693 316.76419042 560.65929411 312.34011173 560.67024612 C303.69998558 560.68793156 295.05999926 560.6842362 286.41986787 560.67259556 C279.39104314 560.66352193 272.3622573 560.66235413 265.33342838 560.66669083 C264.32890579 560.66730376 263.32438319 560.66791669 262.28942052 560.6685482 C260.24806081 560.66982724 258.20670112 560.67112409 256.16534144 560.67243856 C237.07220572 560.68381514 217.97914712 560.6707767 198.88602406 560.6492371 C182.54184938 560.63136879 166.19778839 560.63447373 149.85361576 560.65291214 C130.82373388 560.67437068 111.79391941 560.68271677 92.76402712 560.67046309 C90.73063216 560.66918903 88.69723718 560.66793155 86.6638422 560.66669083 C85.16356282 560.66576517 85.16356282 560.66576517 83.63297477 560.66482082 C76.62144758 560.66138284 69.60996354 560.66716259 62.59844303 560.67660904 C54.04104935 560.68788598 45.48380222 560.68467026 36.9264251 560.66348606 C32.56940318 560.65305167 28.21262464 560.64872192 23.85560513 560.66208267 C-17.55322842 560.77834528 -52.89806385 551.89386941 -83.40370846 522.32283401 C-96.74576366 508.88093181 -106.10045221 492.84269051 -112.50136471 475.13142776 C-112.80687252 474.36959183 -113.11238033 473.60775589 -113.42714596 472.82283401 C-120.03101006 455.44959153 -118.93924933 436.23809834 -118.89353871 417.98420787 C-118.88667883 413.92277742 -118.89726339 409.8613839 -118.90547848 405.79996109 C-118.91874486 397.86744791 -118.91596996 389.93502039 -118.90724055 382.00250399 C-118.90043627 375.54951507 -118.89955909 369.09654999 -118.902812 362.6435585 C-118.9032717 361.72144832 -118.9037314 360.79933813 -118.90420503 359.84928522 C-118.90516431 357.97542098 -118.90613695 356.10155676 -118.90712281 354.22769254 C-118.91565591 336.6998007 -118.90587532 319.17195609 -118.88972171 301.644072 C-118.87632043 286.63869429 -118.87864911 271.63338624 -118.89247799 256.6280098 C-118.90857067 239.15832643 -118.91483213 221.68868436 -118.9056412 204.21899462 C-118.90468566 202.35242876 -118.90374254 200.4858629 -118.902812 198.61929703 C-118.90234918 197.70116268 -118.90188635 196.78302834 -118.9014095 195.83707175 C-118.89883065 189.39971373 -118.90316662 182.96238215 -118.91025066 176.52502823 C-118.91870699 168.66876382 -118.91629936 160.81258921 -118.90040843 152.95633495 C-118.89258089 148.95605336 -118.88933856 144.95592092 -118.89935589 140.95564079 C-118.99353769 99.85884327 -110.40404099 67.16135351 -81.50136471 37.13142776 C-80.64864986 36.18396683 -80.64864986 36.18396683 -79.77870846 35.21736526 C-60.74171553 14.67104553 -27.93919048 0.03182171 0 0 Z " fill="#FEFEFE" transform="translate(335.5013647079468,110.86857223510742)"/>
<path d="M0 0 C3.53949477 2.11119321 6.79667504 4.41101133 10 7 C10.99644531 7.79148438 11.99289062 8.58296875 13.01953125 9.3984375 C21.66537286 16.94513542 25.91831081 26.640927 30.0859375 37.109375 C30.55906876 38.2845871 31.03220001 39.45979919 31.51966858 40.67062378 C36.76771429 53.78298436 41.75514415 66.99454752 46.72052002 80.21594238 C48.4107844 84.71650332 50.10301627 89.21631721 51.80006409 93.71432495 C52.69421119 96.08519389 53.5859322 98.45697985 54.47471619 100.8298645 C59.0691123 113.74764802 59.0691123 113.74764802 66.9453125 124.765625 C67.45168243 125.29681946 67.95805237 125.82801392 68.47976685 126.37530518 C78.01237545 136.28423511 87.88726592 145.87743503 97.68945312 155.51806641 C100.42221493 158.20833768 103.14529663 160.90811141 105.8671875 163.609375 C106.69540009 164.41896667 107.52361267 165.22855835 108.37692261 166.06268311 C115.1103638 172.76636831 121.7771557 179.50522688 122.2421875 189.44140625 C121.6394113 195.80944515 118.82461412 201.00493337 115 206 C126.62405259 213.23729278 138.28810257 220.40589311 150 227.5 C159.13808121 233.0353535 168.25077361 238.60850282 177.32446289 244.24902344 C184.8040893 248.89370639 192.33041683 253.45982179 199.86132812 258.02075195 C206.5122633 262.06070233 213.06654704 266.2214727 219.55078125 270.5234375 C221.80882224 272.1721008 221.80882224 272.1721008 224 272 C225.68816933 270.35511706 227.35353315 268.68662458 229 267 C233.28009757 264.14660162 236.97825571 264.39708541 242 265 C246.10639535 266.29390193 249.05129844 268.61235481 251.4375 272.1875 C254.1440299 277.55429433 253.56656222 283.35782877 252 289 C252.969375 289.78375 253.93875 290.5675 254.9375 291.375 C258.2460391 294.04998906 258.91514217 295.28476975 259.4375 299.6875 C259.40458449 304.19692446 257.5829862 306.42486187 254.60546875 309.65234375 C253 311 253 311 250 312 C248.84338893 314.61899906 248.84338893 314.61899906 247.984375 317.88671875 C247.62335693 319.12599121 247.26233887 320.36526367 246.89038086 321.64208984 C246.51019684 322.99054381 246.13007103 324.33901419 245.75 325.6875 C245.15797907 327.73593232 244.56147533 329.78302464 243.96470642 331.83007812 C243.56264201 333.21020515 243.16198405 334.59074266 242.76271057 335.97167969 C240.92742859 342.30707327 238.95733678 348.59605713 236.9375 354.875 C236.63875977 355.80658936 236.34001953 356.73817871 236.03222656 357.69799805 C235.35710002 359.79939998 234.67895271 361.89983116 234 364 C234.75023437 363.855625 235.50046875 363.71125 236.2734375 363.5625 C249.3252982 361.19541191 258.57790825 361.40613177 270.4375 367.875 C276.00340838 372.49063134 276.96329161 375.74304129 278 383 C195.83 383 113.66 383 29 383 C31.69745828 374.90762517 36.44024911 370.67764095 43.75390625 366.3828125 C60.10564734 358.52095121 74.23310752 361.06357478 91.1875 365.6875 C106.09102459 369.31533164 116.39568037 364.15670821 129.671875 357.75390625 C130.44781006 357.38845703 131.22374512 357.02300781 132.02319336 356.64648438 C133.4953983 355.94939683 134.95829885 355.23211578 136.40844727 354.49023438 C143.61851489 351.0709747 150.70225242 350.78837283 158.37475586 352.95141602 C161.89737353 354.21086191 165.35455133 355.57284885 168.8125 357 C171.14808126 357.94806919 173.48783391 358.88593978 175.83203125 359.8125 C177.35920776 360.44091797 177.35920776 360.44091797 178.91723633 361.08203125 C182.4047923 362.12053687 185.38038887 362.15889176 189 362 C188.3608667 361.61255615 187.7217334 361.2251123 187.06323242 360.82592773 C184.10390724 359.0310147 181.14570072 357.23426561 178.1875 355.4375 C176.68026367 354.52387695 176.68026367 354.52387695 175.14257812 353.59179688 C168.3736225 349.47818719 161.66541115 345.27932396 155 341 C158.03002714 337.37874805 161.06782581 333.87118461 164.4375 330.5625 C166.74856084 328.2913711 168.90984506 325.9750428 171 323.5 C174.6225603 319.28465711 178.5536001 315.40809928 182.5 311.5 C186.94201251 307.10097298 191.27198259 302.70020781 195.3046875 297.91796875 C198.99118749 293.7472971 203.02977802 289.89832661 207 286 C204.32897937 282.94434764 201.01998678 281.08849573 197.55078125 279.078125 C196.90983017 278.70134109 196.26887909 278.32455719 195.60850525 277.93635559 C194.2299317 277.12610307 192.85025909 276.31771818 191.46960449 275.51101685 C187.81825706 273.37648389 184.1761827 271.22629783 180.53515625 269.07421875 C179.80465057 268.64253891 179.0741449 268.21085907 178.32150269 267.76609802 C171.9019307 263.96221837 165.56235868 260.04213306 159.25 256.0625 C151.49970322 251.17956212 143.7092177 246.38292024 135.84326172 241.6887207 C128.66844026 237.40660728 121.51717981 233.08627574 114.375 228.75 C113.48568283 228.21011948 113.48568283 228.21011948 112.57839966 227.65933228 C102.84091383 221.74561946 93.1327329 215.78538336 83.43457031 209.80737305 C72.64943659 203.16135001 61.82868873 196.57474728 51 190 C48.77473889 188.64843864 46.5494785 187.29687609 44.32421875 185.9453125 C31.00283097 177.85512141 31.00283097 177.85512141 17.67630005 169.77340698 C5.9352103 162.6583143 -5.79923202 155.53251492 -17.49871826 148.34915161 C-19.12825 147.34887037 -20.75868823 146.35006634 -22.38916016 145.35131836 C-25.26787392 143.58060542 -28.1374653 141.79673561 -31 140 C-31.86705566 139.45649902 -32.73411133 138.91299805 -33.62744141 138.35302734 C-34.42714355 137.83820801 -35.2268457 137.32338867 -36.05078125 136.79296875 C-36.74469971 136.34848389 -37.43861816 135.90399902 -38.15356445 135.44604492 C-41.53340507 132.79910641 -42.89206373 130.84807067 -43.4375 126.5625 C-42.93235165 122.44914913 -41.89538484 120.89538484 -39 118 C-35.80788429 116.40394215 -33.55443056 116.65159542 -30 117 C-26.75757335 118.41527338 -23.84856189 120.28033719 -20.875 122.1875 C-20.00391602 122.72850342 -19.13283203 123.26950684 -18.23535156 123.8269043 C-16.39927569 124.96894612 -14.5672996 126.11760279 -12.73925781 127.27246094 C-10.12571414 128.92071718 -7.49997512 130.54676422 -4.8671875 132.1640625 C2.64140326 136.77971127 10.11791244 141.44638596 17.58984375 146.12109375 C18.68844727 146.80840576 19.78705078 147.49571777 20.91894531 148.20385742 C23.06610354 149.54799644 25.21260879 150.89317921 27.35839844 152.23950195 C28.32680664 152.84624756 29.29521484 153.45299316 30.29296875 154.078125 C31.1543042 154.61856445 32.01563965 155.15900391 32.90307617 155.71582031 C34.95126366 157.01135785 34.95126366 157.01135785 37 158 C28.71189267 149.55987574 28.71189267 149.55987574 19.8515625 141.73046875 C14.27158374 136.51542531 11.46528771 131.22702684 8.5625 124.25 C8.1514502 123.28223633 7.74040039 122.31447266 7.31689453 121.31738281 C6.13773425 118.52824008 4.97007067 115.7345899 3.80755615 112.93847656 C2.93345195 110.84025651 2.05426841 108.74421157 1.17431641 106.6484375 C-0.4454923 102.78863199 -2.05774805 98.92575105 -3.66433716 95.0604248 C-4.30405545 93.52188188 -4.94506454 91.98387501 -5.58737183 90.44641113 C-6.49346523 88.27380724 -7.39228506 86.09833791 -8.2890625 83.921875 C-8.56356735 83.26658813 -8.8380722 82.61130127 -9.12089539 81.93615723 C-10.27627606 79.11236703 -11 77.08529498 -11 74 C-16.44961941 78.38248861 -21.83146925 82.78849367 -27 87.5 C-31.29991791 91.41891252 -35.75919547 95.09170869 -40.28125 98.75 C-43.77908151 101.64475711 -47.11785404 104.69589539 -50.47265625 107.75390625 C-53.06962393 110.06187598 -55.73404013 112.25555863 -58.4375 114.4375 C-63.37050232 118.42319746 -68.0432232 122.62008666 -72.6875 126.93359375 C-75 129 -75 129 -78 131 C-76.36831478 134.85335832 -73.785109 137.76028252 -71.0625 140.875 C-67.10333148 145.47213261 -63.27582611 150.13979899 -59.5625 154.9375 C-55.35991891 160.35402644 -50.9748897 165.57383345 -46.48071289 170.74975586 C-42.55057597 175.29927169 -38.82922953 179.98346377 -35.15551758 184.74121094 C-31.81047754 189.04533527 -28.28350685 193.15468707 -24.6875 197.25 C-18.29974109 204.56466998 -11.90674532 212.05130189 -11.84609985 222.15284729 C-11.83749939 223.2195314 -11.82889893 224.28621552 -11.82003784 225.38522339 C-11.81364792 227.14082077 -11.81364792 227.14082077 -11.80712891 228.93188477 C-11.79486267 230.78113304 -11.79486267 230.78113304 -11.78234863 232.66773987 C-11.75748119 236.7589587 -11.74081838 240.85014052 -11.7265625 244.94140625 C-11.72120087 246.35245202 -11.71582336 247.76349773 -11.71043015 249.17454338 C-11.68880043 255.04823833 -11.67006748 260.92193056 -11.65880775 266.79565525 C-11.64259425 275.19704374 -11.60948156 283.59796786 -11.55240691 291.99918133 C-11.51360077 297.91442339 -11.49416222 303.82954185 -11.48888719 309.7449078 C-11.48524678 313.27325559 -11.47336805 316.80110786 -11.44078445 320.32931709 C-11.40487996 324.27379804 -11.40910178 328.21770524 -11.41650391 332.16235352 C-11.40009857 333.31858215 -11.38369324 334.47481079 -11.36679077 335.66607666 C-11.42988697 343.90666133 -13.13239276 350.60438989 -18.6791172 356.90834904 C-23.8215235 361.91414295 -29.88819744 363.64866745 -36.875 364.4375 C-44.01095541 364.09565782 -50.85815486 361.54128452 -56 356.5625 C-63.17945871 348.47489973 -64.29627803 340.24297098 -64.30297852 329.77612305 C-64.31141785 328.78490952 -64.31985718 327.79369598 -64.32855225 326.77244568 C-64.35419864 323.5188648 -64.36643758 320.26537438 -64.37890625 317.01171875 C-64.39509056 314.74346711 -64.41227153 312.47522237 -64.43040466 310.20698547 C-64.47598114 304.25209747 -64.51084906 298.29720014 -64.54260254 292.34222412 C-64.59458985 282.79330299 -64.65956485 273.24448308 -64.73081779 263.69568825 C-64.75366668 260.35920241 -64.76992339 257.02272955 -64.78553772 253.686203 C-64.79894067 251.64976862 -64.81255514 249.61333561 -64.82641602 247.5769043 C-64.83033607 246.18127258 -64.83033607 246.18127258 -64.83433533 244.75744629 C-64.84468307 243.48123665 -64.84468307 243.48123665 -64.85523987 242.179245 C-64.85909478 241.44021785 -64.8629497 240.7011907 -64.86692142 239.93976879 C-64.93359831 237.781615 -64.93359831 237.781615 -66 235 C-67.32347617 234.313973 -68.65874062 233.6505732 -70 233 C-71.46827909 231.68142169 -72.88631623 230.3059134 -74.265625 228.89453125 C-75.07386719 228.07533203 -75.88210938 227.25613281 -76.71484375 226.41210938 C-77.55144531 225.55423828 -78.38804687 224.69636719 -79.25 223.8125 C-84.43361867 218.51902442 -89.62186402 213.34889987 -95.24902344 208.52612305 C-97.61717636 206.462079 -99.80921793 204.2499924 -102 202 C-105.55971161 198.39674452 -109.21000977 195.0114462 -113.05859375 191.72265625 C-115.85342525 189.24273534 -118.44591987 186.57905968 -121.04296875 183.89453125 C-123.24490924 181.76291221 -125.58344786 179.882323 -128 178 C-127.68361572 178.55236328 -127.36723145 179.10472656 -127.04125977 179.67382812 C-126.59580811 180.45177734 -126.15035645 181.22972656 -125.69140625 182.03125 C-125.19543945 182.89685547 -124.69947266 183.76246094 -124.18847656 184.65429688 C-123.09679815 186.564898 -122.00895638 188.47769601 -120.92480469 190.39257812 C-118.42058069 194.8100588 -115.90343564 199.20144026 -113.19921875 203.5 C-108.02405944 211.84780477 -105.88021868 218.03151196 -107 228 C-107.01546875 229.10730469 -107.0309375 230.21460938 -107.046875 231.35546875 C-107.19397736 237.86474836 -108.27995049 243.45635881 -110.67578125 249.49609375 C-111.07777992 250.53724335 -111.07777992 250.53724335 -111.48789978 251.59942627 C-112.31625277 253.73660574 -113.1566322 255.86870688 -114 258 C-114.48863439 259.24518773 -114.97724227 260.49038586 -115.46582031 261.7355957 C-116.98467879 265.57921136 -118.52039056 269.41567355 -120.0625 273.25 C-120.64837845 274.70881265 -121.23423371 276.16763461 -121.82006836 277.62646484 C-122.78354699 280.02482406 -123.74749479 282.42299167 -124.7124176 284.82077026 C-127.14965696 290.87790093 -129.57573081 296.93943194 -131.99830627 303.00244141 C-133.88027801 307.70889025 -135.76763022 312.41317063 -137.65597534 317.11706543 C-138.58811289 319.44185761 -139.51825256 321.76745192 -140.44631958 324.09387207 C-141.76196292 327.39039394 -143.08522348 330.68376518 -144.41015625 333.9765625 C-144.79929199 334.95652191 -145.18842773 335.93648132 -145.58935547 336.94613647 C-153.40650886 356.28620854 -153.40650886 356.28620854 -163.32421875 361.13671875 C-169.55661158 363.14746155 -177.331717 363.17276313 -183.375 360.5 C-189.65364884 356.73015588 -194.05185454 351.058498 -196.58984375 344.25 C-198.13128499 335.79409377 -195.70986435 328.94032594 -193.046875 320.95703125 C-192.62978288 319.67964401 -192.21371897 318.40192064 -191.7986145 317.12388611 C-190.91753359 314.418156 -190.0293345 311.71490877 -189.13568115 309.01330566 C-187.73797652 304.7847485 -186.36410631 300.54866073 -184.99267578 296.31152344 C-181.14676763 284.45216332 -177.27091567 272.61069384 -173.0703125 260.87109375 C-166.69629981 242.91766641 -163.38249653 226.76708109 -163.12315369 207.69297791 C-163.04737389 202.16198136 -162.81089384 196.65168714 -162.50390625 191.12890625 C-162.45750504 190.28583923 -162.41110382 189.44277222 -162.36329651 188.57415771 C-162.268406 186.85198224 -162.17337844 185.12981431 -162.07821655 183.40765381 C-161.45857611 171.97998433 -160.97408175 160.55600178 -160.7578125 149.11328125 C-160.74011307 148.2273378 -160.72241364 147.34139435 -160.70417786 146.42860413 C-160.62185239 142.20210081 -160.55551495 137.97639981 -160.51733398 133.74926758 C-160.20136243 110.5924817 -150.29479744 93.49180703 -134.5 77.1875 C-130.45487475 73.28658599 -126.13745725 69.76171818 -121.75390625 66.25 C-119.0907355 64.07413284 -116.53957552 61.81821791 -114 59.5 C-110.60401318 56.40444804 -107.13828469 53.44848793 -103.5625 50.5625 C-98.788597 46.70174863 -94.26611572 42.62562925 -89.75 38.46875 C-86.18815771 35.27118704 -82.47434167 32.28611657 -78.75 29.28125 C-75.91900422 26.93281032 -73.20616402 24.49090098 -70.5 22 C-65.98705478 17.84757537 -61.33424476 13.93389926 -56.55078125 10.09765625 C-54.27408645 8.22539728 -52.14318047 6.27096244 -50 4.25 C-36.19385616 -8.04118395 -15.84613792 -7.90326129 0 0 Z " fill="#7958FE" transform="translate(457,236)"/>
<path d="M0 0 C1.45028166 -0.00258757 2.90056261 -0.00560182 4.3508426 -0.0090034 C8.31858595 -0.01703087 12.28631118 -0.01886059 16.2540617 -0.01960087 C20.54061042 -0.02145891 24.8271499 -0.02901007 29.11369324 -0.03573608 C38.47983851 -0.04929048 47.84597948 -0.05533984 57.21213293 -0.05974674 C63.06763264 -0.06251452 68.92313071 -0.06675289 74.7786293 -0.07125092 C91.01092614 -0.08344067 107.24322168 -0.09374 123.47552299 -0.09712601 C124.513494 -0.09734557 125.551465 -0.09756514 126.62088967 -0.09779136 C127.66125968 -0.09800964 128.7016297 -0.09822791 129.77352607 -0.09845281 C131.88149826 -0.09889626 133.98947044 -0.09934283 136.09744263 -0.09979248 C137.14305623 -0.10001391 138.18866983 -0.10023534 139.2659687 -0.10046348 C156.19164677 -0.10440772 173.11728169 -0.12185166 190.04294311 -0.145152 C207.44664247 -0.16891572 224.85032023 -0.18133017 242.25403607 -0.18249393 C252.01483902 -0.18340796 261.77558575 -0.18909138 271.53637314 -0.20731354 C279.85138491 -0.22278255 288.16632309 -0.2277952 296.48134653 -0.21957543 C300.71662566 -0.21569263 304.95175691 -0.21648116 309.18701744 -0.23063278 C329.35686967 -0.29417059 348.82659093 0.03403888 368.33181763 5.89044189 C369.63723511 6.2755896 369.63723511 6.2755896 370.96902466 6.66851807 C406.33146827 17.44579809 436.27720804 41.74360796 453.89431763 74.26544189 C461.5649528 89.01516198 466.22576767 104.73151065 468.64431763 121.14044189 C468.90339134 122.57552109 468.90339134 122.57552109 469.16769886 124.03959179 C469.96999778 129.72535118 469.78523278 135.46996665 469.7780304 141.19935608 C469.77990022 142.53312977 469.7822016 143.86690291 469.78489572 145.20067519 C469.79099956 148.85562648 469.79088178 152.51055484 469.78970134 156.16551006 C469.78949696 160.11192035 469.79501985 164.05832335 469.79975891 168.00473022 C469.80805966 175.73485384 469.81081355 183.46496984 469.81137129 191.19509754 C469.81184699 197.4843466 469.81390443 203.77359315 469.81707191 210.06284142 C469.82587908 227.91500045 469.83049152 245.76715348 469.82974144 263.61931471 C469.82968151 265.06244478 469.82968151 265.06244478 469.82962036 266.534729 C469.82955904 267.97963356 469.82955904 267.97963356 469.82949648 269.4537281 C469.82909061 285.04162839 469.83864506 300.62950444 469.85275873 316.21739773 C469.86715394 332.24354384 469.8740271 348.26967817 469.87316495 364.29583091 C469.87283393 373.2847586 469.87553882 382.27366093 469.886343 391.26258278 C469.89548975 398.92146363 469.89758943 406.58030765 469.89083358 414.23919163 C469.88758851 418.14013428 469.88743781 422.04100645 469.89618683 425.94194221 C469.97785881 464.79520726 469.97785881 464.79520726 465.33181763 480.95294189 C465.11235474 481.74297607 464.89289185 482.53301025 464.66677856 483.34698486 C455.23922967 516.47827795 434.59770067 543.55391327 405.64431763 562.14044189 C404.58728638 562.82106689 403.53025513 563.50169189 402.44119263 564.20294189 C374.93674292 580.8881057 345.60523612 583.91445725 314.19673491 583.76474714 C309.74412688 583.74911174 305.2915857 583.76277468 300.838974 583.77249146 C292.15009221 583.78691362 283.46144653 583.77489172 274.77258725 583.75337821 C264.63180134 583.72920347 254.49106762 583.73109251 244.35025929 583.73368412 C226.24803479 583.7373626 208.14592062 583.71664714 190.04373169 583.68243408 C172.51668513 583.64932084 154.98975421 583.63518217 137.462677 583.64141846 C118.32293252 583.64819515 99.18323626 583.64568821 80.04349887 583.62605906 C79.02986348 583.62501957 78.01622808 583.62398008 76.97187646 583.6229091 C74.936659 583.62081838 72.90144157 583.61870741 70.86622415 583.61657593 C63.81268909 583.6097067 56.75916896 583.60900657 49.70563126 583.61045837 C41.10395397 583.61190373 32.5023704 583.60210405 23.90072413 583.57851201 C19.51979347 583.56672126 15.1389928 583.5594804 10.7580471 583.56534958 C6.73638294 583.57057797 2.71499174 583.56163726 -1.30662598 583.54207498 C-2.74969629 583.53739347 -4.19279373 583.53755908 -5.63585947 583.54348534 C-42.67039202 583.680706 -77.9212087 567.73738769 -104.35568237 542.14044189 C-130.5303847 515.03301075 -142.5220893 480.85926164 -142.49612427 443.48625183 C-142.4987131 442.12442729 -142.50172769 440.7626035 -142.50512767 439.40078074 C-142.51314004 435.68226987 -142.51498399 431.96377836 -142.51572514 428.24525988 C-142.51758579 424.2252995 -142.52513809 420.20534893 -142.53186035 416.18539429 C-142.54540278 407.40620075 -142.55146189 398.6270118 -142.55587101 389.84780955 C-142.55864016 384.35899875 -142.5628787 378.8701897 -142.56737518 373.38138008 C-142.57956211 358.16385859 -142.58986281 342.94633848 -142.59325027 327.72881222 C-142.59346984 326.75616066 -142.59368941 325.7835091 -142.59391563 324.78138325 C-142.5941339 323.80649927 -142.59435218 322.8316153 -142.59457707 321.82718939 C-142.59502053 319.85193566 -142.59546709 317.87668194 -142.59591675 315.90142822 C-142.59613818 314.92164903 -142.59635961 313.94186983 -142.59658775 312.93240035 C-142.60053356 297.06594375 -142.61798356 281.19953314 -142.64127627 265.33309429 C-142.66503524 249.01644474 -142.67745418 232.69981823 -142.67861819 216.38315111 C-142.67953236 207.2327588 -142.68521932 198.08242643 -142.70343781 188.9320507 C-142.71890023 181.13888927 -142.72392321 173.34580632 -142.7156997 165.55263244 C-142.71181494 161.58290038 -142.71261532 157.61332608 -142.72675705 153.64361382 C-142.82876468 123.24440772 -142.82876468 123.24440772 -139.35568237 109.14044189 C-139.04147463 107.80157993 -138.72782024 106.462588 -138.41469193 105.12347317 C-129.98075488 70.20715063 -107.89564251 40.19124673 -77.34103394 21.32501221 C-53.53936965 7.12362569 -27.63328099 -0.0198253 0 0 Z M-95.35568237 50.14044189 C-96.30314331 50.99315674 -96.30314331 50.99315674 -97.26974487 51.86309814 C-116.88034457 70.03310876 -129.11956764 98.81287034 -131.35568237 125.14044189 C-131.50286121 129.66010606 -131.49921447 134.17748485 -131.49612427 138.69924927 C-131.49871141 140.0751342 -131.50172553 141.45101839 -131.50512767 142.82690156 C-131.51316031 146.59360674 -131.51498515 150.36029284 -131.51572514 154.12700558 C-131.51758228 158.19541874 -131.52513303 162.26382214 -131.53186035 166.33222961 C-131.54541874 175.22317543 -131.55146481 184.11411673 -131.55587101 193.00507116 C-131.55863828 198.56322798 -131.56287657 204.12138308 -131.56737518 209.67953873 C-131.57956577 225.08655882 -131.58986473 240.49357753 -131.59325027 255.90060234 C-131.59346984 256.88594302 -131.59368941 257.87128371 -131.59391563 258.8864832 C-131.5941339 259.87410771 -131.59435218 260.86173222 -131.59457707 261.87928474 C-131.59502053 263.88039963 -131.59546709 265.88151451 -131.59591675 267.88262939 C-131.59613818 268.87523974 -131.59635961 269.86785009 -131.59658775 270.89053954 C-131.60053167 286.9569098 -131.61797425 303.0232346 -131.64127627 319.08958732 C-131.66503993 335.60845057 -131.67745444 352.12729107 -131.67861819 368.64617169 C-131.67953226 377.9112026 -131.68521657 387.17617429 -131.70343781 396.44118881 C-131.71890679 404.33428186 -131.72391952 412.2272974 -131.7156997 420.12040274 C-131.71181679 424.14087572 -131.71260589 428.16119295 -131.72675705 432.18164635 C-131.85839055 471.95679168 -123.89703929 505.76771152 -95.55490112 535.03887939 C-72.41854849 558.01043298 -40.4903106 572.33281331 -7.83043647 572.54633421 C-6.45675014 572.54054313 -5.08306501 572.53446232 -3.7093811 572.52812195 C-2.20426993 572.53230769 -0.69916192 572.53779193 0.80594039 572.54444176 C4.89281742 572.55875285 8.97949035 572.55469716 13.06637788 572.54727495 C17.49326043 572.54250956 21.92010092 572.55508274 26.3469696 572.56529236 C35.00098786 572.58242078 43.65493331 572.58333271 52.3089641 572.57807945 C59.34932205 572.57402498 66.38965862 572.57549642 73.43001556 572.58082771 C74.43508012 572.58157614 75.44014468 572.58232456 76.47566573 572.58309566 C78.51799157 572.58462727 80.5603174 572.58616561 82.60264322 572.58771063 C101.72245134 572.6014144 120.84221845 572.59601318 139.96202561 572.58452541 C157.41685914 572.57459771 174.87158659 572.58752952 192.32640377 572.61145961 C210.28969501 572.63589944 228.25293694 572.64544635 246.21624446 572.63880688 C256.28494397 572.63532518 266.35356199 572.63747693 276.42224884 572.65505791 C284.99437138 572.66984122 293.56635504 572.67033588 302.13847503 572.652987 C306.50357525 572.64452434 310.86842803 572.64221006 315.23351479 572.65763855 C335.84701168 572.72534705 355.96795125 572.6157999 375.45681763 564.89044189 C376.22904663 564.59379639 377.00127563 564.29715088 377.79690552 563.99151611 C394.65171109 557.33012761 408.45412019 547.56794084 421.64431763 535.14044189 C422.31978638 534.52942627 422.99525513 533.91841064 423.69119263 533.28887939 C437.48791658 520.31995888 447.57119154 502.1193039 453.08181763 484.14044189 C453.30450317 483.41969482 453.52718872 482.69894775 453.75662231 481.95635986 C458.96691524 463.43131993 459.08133036 444.77360798 459.02183259 425.69326818 C459.01287983 421.75119083 459.0214655 417.80914268 459.0276947 413.86706543 C459.0371203 406.17130971 459.03063845 398.47564862 459.01843176 390.77989999 C459.0047228 381.79825374 459.00645736 372.81662932 459.00856509 363.83497526 C459.01174573 347.80030359 459.00013961 331.76567652 458.98049927 315.73101807 C458.96148957 300.20691572 458.95441539 284.6828656 458.95999146 269.15875244 C458.96606176 252.20877066 458.96585003 235.25881176 458.95450562 218.30883187 C458.95329846 216.49848727 458.95209248 214.68814268 458.95088768 212.87779808 C458.95028414 211.9873184 458.9496806 211.09683873 458.94905877 210.17937482 C458.94519505 203.93293314 458.94556719 197.68650004 458.94747353 191.44005775 C458.94960489 183.82019609 458.94430035 176.20037993 458.92985997 168.58053104 C458.92266237 164.70001107 458.91849893 160.81955707 458.92310333 156.9390316 C458.96582183 115.74312179 451.82616425 81.98846247 422.64431763 51.14044189 C421.82318481 50.24325439 421.002052 49.34606689 420.15603638 48.42169189 C400.83578914 28.04240889 369.77730402 12.90789076 341.5388155 12.04561377 C337.68275038 12.00550744 333.82730586 11.9973292 329.97109985 12 C328.47417039 11.9974134 326.97724161 11.99439942 325.48031378 11.9909966 C321.37910204 11.98295789 317.27790783 11.98113878 313.17668915 11.98039913 C308.74839309 11.97854309 304.32010602 11.97099297 299.89181519 11.96426392 C290.21383856 11.95070198 280.53586609 11.94465912 270.85788155 11.94025326 C264.80994199 11.93748702 258.76200403 11.93324896 252.71406555 11.92874908 C235.95509186 11.91655885 219.19611944 11.90625929 202.43714142 11.90287399 C200.82928462 11.90254464 200.82928462 11.90254464 199.18894586 11.90220864 C198.11453694 11.90199036 197.04012802 11.90177209 195.93316126 11.90154719 C193.75615088 11.90110373 191.5791405 11.90065717 189.40213013 11.90020752 C188.32226733 11.89998609 187.24240453 11.89976466 186.12981862 11.89953652 C168.64269639 11.89559076 151.1556159 11.87814239 133.66850978 11.854848 C115.69646038 11.83110172 97.72443188 11.81867064 79.75236654 11.81750607 C69.66915202 11.81659112 59.58599186 11.81088414 49.50279236 11.79268646 C40.91465163 11.77724116 32.32658207 11.77219103 23.73843008 11.78042457 C19.36176278 11.78431552 14.98523861 11.78347804 10.60858917 11.76936722 C6.59133669 11.75653436 2.57433352 11.75790704 -1.44291908 11.76995793 C-2.88575695 11.77189883 -4.32861307 11.76891211 -5.77142543 11.76011357 C-40.49739829 11.56198671 -70.75610013 26.46426739 -95.35568237 50.14044189 Z " fill="#7755FE" transform="translate(348.3556823730469,98.85955810546875)"/>
<path d="M0 0 C1.53848985 1.16453392 3.06108234 2.35054485 4.5625 3.5625 C5.20574219 4.078125 5.84898437 4.59375 6.51171875 5.125 C7.88076538 6.24832032 9.2254011 7.40133517 10.5625 8.5625 C10.63597656 7.51449219 10.63597656 7.51449219 10.7109375 6.4453125 C10.78570313 5.53523437 10.86046875 4.62515625 10.9375 3.6875 C11.00710938 2.78257812 11.07671875 1.87765625 11.1484375 0.9453125 C11.5625 -1.4375 11.5625 -1.4375 13.5625 -3.4375 C15.68554688 -3.69628906 15.68554688 -3.69628906 18.28125 -3.703125 C19.21324219 -3.70570313 20.14523437 -3.70828125 21.10546875 -3.7109375 C22.08128906 -3.70320312 23.05710937 -3.69546875 24.0625 -3.6875 C25.52623047 -3.69910156 25.52623047 -3.69910156 27.01953125 -3.7109375 C27.95152344 -3.70835937 28.88351562 -3.70578125 29.84375 -3.703125 C30.70033203 -3.70086914 31.55691406 -3.69861328 32.43945312 -3.69628906 C34.5625 -3.4375 34.5625 -3.4375 36.5625 -1.4375 C36.81976891 0.46340275 36.81976891 0.46340275 36.82992554 2.82667542 C36.83845551 3.72199982 36.84698547 4.61732422 36.85577393 5.53977966 C36.85486755 6.52511185 36.85396118 7.51044403 36.85302734 8.52563477 C36.85974457 9.56175903 36.86646179 10.5978833 36.87338257 11.66540527 C36.89246733 15.11162043 36.8962939 18.55764143 36.8984375 22.00390625 C36.90486482 24.40412984 36.91159313 26.80435264 36.91860962 29.20457458 C36.9306132 34.25285655 36.93428795 39.30106999 36.93310547 44.34936523 C36.93290362 50.77789004 36.9600519 57.20596604 36.99464989 63.63438511 C37.01705239 68.60281838 37.02093872 73.5711466 37.01988602 78.53962517 C37.02222785 80.90638697 37.03097027 83.2731523 37.04655075 85.63986397 C37.16827009 106.06479849 36.29674337 125.92304897 21.6015625 141.71875 C7.53628489 154.4367788 -9.62075952 157.57309021 -27.91015625 156.7578125 C-42.06310232 155.66407633 -54.80271517 150.30260095 -64.5546875 139.8515625 C-69.14541249 134.27030763 -70.89959386 129.68668735 -70.7734375 122.4453125 C-70.4375 120.5625 -70.4375 120.5625 -68.4375 118.5625 C-64.73373287 117.97382716 -60.99489452 118.00655153 -57.25 117.9375 C-56.22068359 117.87949219 -55.19136719 117.82148437 -54.13085938 117.76171875 C-46.60172383 117.63631355 -46.60172383 117.63631355 -43.22607422 120.32177734 C-41.48965099 122.32924758 -39.97486905 124.4022909 -38.4375 126.5625 C-31.04318481 132.10823639 -22.35791807 132.38983961 -13.4375 131.5625 C-6.7646435 130.10020967 -2.04961899 127.2010123 2.16015625 121.8125 C7.11505615 113.86257704 7.18128677 104.68532699 7.5625 95.5625 C6.56283203 96.35914063 6.56283203 96.35914063 5.54296875 97.171875 C-0.82834658 102.05506493 -6.71912958 105.34831594 -14.4375 107.5625 C-15.03433594 107.75457031 -15.63117187 107.94664062 -16.24609375 108.14453125 C-25.63674846 109.93561869 -36.68458826 109.43794745 -45.4375 105.5625 C-46.32695313 105.17191406 -47.21640625 104.78132812 -48.1328125 104.37890625 C-60.42163559 98.33718682 -67.97277448 89.21665465 -72.77856445 76.58691406 C-75.3273709 68.75634605 -75.79589804 60.99808845 -75.75 52.8125 C-75.74436035 51.75772461 -75.7387207 50.70294922 -75.73291016 49.61621094 C-75.47571042 33.03828706 -71.51277142 18.99984399 -59.79296875 6.75 C-43.42546036 -8.45033947 -19.10491671 -13.09888002 0 0 Z " fill="#7857FE" transform="translate(654.4375,754.4375)"/>
<path d="M0 0 C2.08133976 0.0084755 4.15990069 -0.02019042 6.2409668 -0.05200195 C7.57495036 -0.05361519 8.90893873 -0.0530341 10.24291992 -0.05004883 C11.44924072 -0.05190186 12.65556152 -0.05375488 13.8984375 -0.05566406 C19.24406624 0.7360669 22.16004616 3.10610855 25.58911133 7.18725586 C26.32693848 8.2575 27.06476563 9.32774414 27.82495117 10.43041992 C28.24443024 11.03497009 28.6639093 11.63952026 29.09609985 12.26239014 C30.50893482 14.31306381 31.90010677 16.3769996 33.28588867 18.44604492 C33.78358765 19.18862549 34.28128662 19.93120605 34.79406738 20.69628906 C38.78538852 26.67281575 42.72521536 32.68278812 46.66088867 38.69604492 C48.95832924 42.20259411 51.25790965 45.70772892 53.55932617 49.21166992 C54.4736441 50.60391785 54.4736441 50.60391785 55.40643311 52.02429199 C66.94363902 69.55714781 78.63193276 86.99069611 90.28588867 104.44604492 C90.29468803 102.55803413 90.29468803 102.55803413 90.30366516 100.63188171 C90.36080892 88.78619238 90.4335266 76.94068811 90.52160358 65.09518719 C90.56638439 59.00487775 90.60562348 52.91463642 90.63232422 46.82421875 C90.65828027 40.94969161 90.6986279 35.07542545 90.74907494 29.20105934 C90.76579585 26.95674694 90.77727746 24.71238935 90.78350258 22.4680233 C90.79308688 19.33110385 90.82107816 16.19485999 90.85351562 13.05810547 C90.85136299 11.65764732 90.85136299 11.65764732 90.84916687 10.22889709 C90.86797409 8.94796677 90.86797409 8.94796677 90.88716125 7.64115906 C90.89177022 6.89911571 90.89637918 6.15707235 90.90112782 5.39254284 C91.39661996 2.88585744 92.28286044 1.99047335 94.28588867 0.44604492 C96.8737793 0.05786133 96.8737793 0.05786133 99.94213867 0.04760742 C101.04686523 0.04374023 102.1515918 0.03987305 103.28979492 0.03588867 C104.44350586 0.04749023 105.5972168 0.0590918 106.78588867 0.07104492 C108.51645508 0.05364258 108.51645508 0.05364258 110.28198242 0.03588867 C111.38670898 0.03975586 112.49143555 0.04362305 113.62963867 0.04760742 C114.64219727 0.05099121 115.65475586 0.054375 116.69799805 0.05786133 C119.28588867 0.44604492 119.28588867 0.44604492 120.9238224 1.59548187 C122.87023902 4.23996897 122.66345781 6.17793938 122.6668396 9.4432373 C122.67529907 10.69673477 122.68375854 11.95023224 122.69247437 13.24171448 C122.68664127 14.63339363 122.68049675 16.0250715 122.67407227 17.41674805 C122.67813672 18.88028862 122.68347788 20.34382612 122.69000244 21.80735779 C122.70369706 25.78460376 122.69836864 29.76161668 122.68886518 33.73886681 C122.68127965 37.89749157 122.68831111 42.05609614 122.69302368 46.21472168 C122.69848447 53.19892974 122.69128117 60.1830427 122.67700195 67.16723633 C122.66067478 75.24651032 122.66596306 83.3255572 122.68248117 91.40482569 C122.69608686 98.3365303 122.6980202 105.26816647 122.69016516 112.19988012 C122.68548358 116.3420773 122.68487705 120.48416768 122.69477463 124.62635803 C122.70342873 128.52027603 122.69745116 132.4139007 122.68009186 136.30778694 C122.67611864 137.73847529 122.67727532 139.16918825 122.68387985 140.59986687 C122.69205164 142.54951991 122.67999703 144.49922677 122.6668396 146.44885254 C122.66570852 147.54096794 122.66457745 148.63308334 122.66341209 149.75829315 C122.28588867 152.44604492 122.28588867 152.44604492 120.94181252 154.29264069 C117.1397812 156.94087782 111.57491112 156.04486317 107.10888672 156.05688477 C105.12237804 156.07087596 103.13649046 156.13899785 101.15112305 156.20776367 C90.3656684 156.2844505 90.3656684 156.2844505 85.85229492 152.62573242 C81.39948006 147.89435454 77.9005124 142.40302212 74.41088867 136.94604492 C73.36553955 135.34418335 73.36553955 135.34418335 72.29907227 133.70996094 C70.91392038 131.58729191 69.53309041 129.46179519 68.15698242 127.33325195 C65.77629333 123.65970953 63.34822356 120.0195909 60.91088867 116.38354492 C59.36886505 114.07128197 57.82723319 111.75876038 56.28588867 109.44604492 C55.58391357 108.39344482 54.88193848 107.34084473 54.15869141 106.25634766 C49.79057842 99.70609794 45.42531157 93.1539654 41.06347656 86.59953308 C38.58416138 82.8742619 36.10389859 79.14962212 33.62353516 75.42504883 C32.34025938 73.49757949 31.05739184 71.5698383 29.77490234 69.6418457 C27.90333038 66.82847022 26.03030674 64.01606628 24.15698242 61.20385742 C23.58104843 60.33737579 23.00511444 59.47089417 22.41172791 58.57815552 C21.8834993 57.78577484 21.35527069 56.99339417 20.81103516 56.17700195 C20.34600082 55.47834015 19.88096649 54.77967834 19.40184021 54.05984497 C18.38306131 52.48341117 18.38306131 52.48341117 17.28588867 51.44604492 C17.28002243 52.67744202 17.27415619 53.90883911 17.26811218 55.17755127 C17.21094114 66.77275692 17.13820893 78.36777401 17.05017376 89.96278763 C17.00541404 95.92415266 16.96617019 101.88544846 16.93945312 107.84692383 C16.91347617 113.59826487 16.87311339 119.34934029 16.82270241 125.10051727 C16.80599573 127.29655406 16.7945052 129.49263683 16.78827477 131.68872833 C16.7786751 134.76078755 16.75066499 137.83216134 16.71826172 140.90405273 C16.71969681 141.81539474 16.7211319 142.72673676 16.72261047 143.66569519 C16.63100824 149.79167707 16.63100824 149.79167707 14.93307495 153.01106262 C12.4337314 155.18842034 10.42379608 154.94762831 7.15698242 154.94213867 C5.95750977 154.9427832 4.75803711 154.94342773 3.5222168 154.9440918 C2.26860352 154.92411133 1.01499023 154.90413086 -0.27661133 154.88354492 C-1.5340918 154.89063477 -2.79157227 154.89772461 -4.0871582 154.9050293 C-11.01341837 154.85659391 -11.01341837 154.85659391 -13.71411133 154.44604492 C-16.0380182 150.96018462 -15.9670164 149.60377905 -15.97480774 145.48681641 C-15.98189255 144.24173309 -15.98897736 142.99664978 -15.99627686 141.71383667 C-15.99398298 140.33160364 -15.99147327 138.94937096 -15.98876953 137.56713867 C-15.99311604 136.11345151 -15.99829899 134.65976665 -16.0042572 133.20608521 C-16.01766395 129.25574843 -16.0182241 125.30550723 -16.0156939 121.35515213 C-16.01462549 118.05973125 -16.01950415 114.76432981 -16.02429932 111.46891308 C-16.03539995 103.69662718 -16.03582857 95.92438961 -16.02978516 88.15209961 C-16.02374155 80.12736638 -16.03606486 72.10280831 -16.05735523 64.07810497 C-16.07495179 57.19311751 -16.08097573 50.3081859 -16.07771748 43.42317677 C-16.07590162 39.30891471 -16.07857092 35.19477764 -16.09243202 31.08053589 C-16.10497451 27.21289833 -16.10310053 23.34553463 -16.09002113 19.47790146 C-16.08764808 18.05688257 -16.09041603 16.63584461 -16.09864426 15.21484756 C-16.10905073 13.27834777 -16.0992426 11.34177047 -16.08833313 9.40527344 C-16.08850087 8.32053238 -16.08866861 7.23579132 -16.08884144 6.11817932 C-15.71411133 3.44604492 -15.71411133 3.44604492 -14.37817669 1.59884644 C-10.47878539 -1.1025043 -4.56899814 -0.02843218 0 0 Z " fill="#7858FE" transform="translate(221.714111328125,709.553955078125)"/>
<path d="M0 0 C1.040354 -0.01015137 2.08070801 -0.02030273 3.15258789 -0.03076172 C16.84809849 0.12233302 29.47710428 3.68628968 39.75 13.0625 C51.27895516 25.46737167 51.75860053 40.50226019 51.7734375 56.4609375 C51.7798754 58.09616204 51.78660448 59.73138546 51.79360962 61.36660767 C51.80551612 64.77389197 51.80929662 68.1810753 51.80810547 71.58837891 C51.80790103 75.95314771 51.83536025 80.31727453 51.86964989 84.68189049 C51.89186647 88.04992662 51.89594486 91.41780583 51.89488602 94.78590775 C51.89724383 96.39587267 51.90607757 98.0058418 51.92155075 99.6157341 C51.94113397 101.86066163 51.93540775 104.10417106 51.92333984 106.34912109 C51.92618988 107.62467865 51.92903992 108.90023621 51.93197632 110.21444702 C51.3523572 113.99247047 50.4610689 115.17484308 47.4375 117.4375 C45.05566406 117.89160156 45.05566406 117.89160156 42.453125 117.828125 C41.51855469 117.81523438 40.58398438 117.80234375 39.62109375 117.7890625 C38.65300781 117.75554687 37.68492187 117.72203125 36.6875 117.6875 C35.70394531 117.66945313 34.72039062 117.65140625 33.70703125 117.6328125 C31.28286217 117.58574126 28.86067941 117.52000742 26.4375 117.4375 C24.28444043 113.57993493 23.04496746 110.88620215 23.4375 106.4375 C22.84324219 106.88480469 22.24898437 107.33210937 21.63671875 107.79296875 C7.93463347 117.78718025 -5.64162655 122.08871966 -22.5625 120.4375 C-32.52319688 118.53816885 -41.39616995 114.68128036 -47.875 106.6875 C-54.1945807 97.34015362 -55.74039186 88.69426038 -54.5625 77.4375 C-52.79244692 69.65555068 -48.69971907 62.69369286 -41.87158203 58.36572266 C-39.8986514 57.22681053 -37.90324148 56.1621145 -35.875 55.125 C-35.24045898 54.79935059 -34.60591797 54.47370117 -33.95214844 54.13818359 C-22.91263246 48.85996648 -10.60647731 47.53492845 1.375 45.8125 C3.59702844 45.48778474 5.81879718 45.16136762 8.04042053 44.83389282 C10.03684648 44.54041574 12.03390857 44.25127561 14.03100586 43.96240234 C16.85535175 43.52720248 19.64233661 43.02823901 22.4375 42.4375 C20.41068349 33.75732715 20.41068349 33.75732715 14.4375 27.4375 C6.96667129 24.11412954 -1.41994333 22.78924466 -9.3046875 25.31640625 C-13.76722821 27.32256328 -16.22911071 28.78947975 -18.58984375 33.0859375 C-20.32383627 35.64354283 -21.11880326 36.33586442 -24.17480469 37.03588867 C-27.39277265 37.19966668 -30.53139121 37.14604177 -33.75 37 C-35.40805664 36.97776367 -35.40805664 36.97776367 -37.09960938 36.95507812 C-45.23907425 36.76092575 -45.23907425 36.76092575 -47.5625 34.4375 C-48.41876208 27.46508024 -46.5923011 23.10376855 -42.5625 17.4375 C-31.74277099 3.98149184 -16.49783522 0.11422233 0 0 Z " fill="#7857FE" transform="translate(763.5625,747.5625)"/>
<path d="M0 0 C12.96276695 9.95164646 21.25701924 23.00391354 24 39.1875 C24.36453125 42.70213152 24.56307797 46.21898871 24.6875 49.75 C24.74357422 51.24273438 24.74357422 51.24273438 24.80078125 52.765625 C24.23834099 56.37762669 23.28225626 57.30547834 20.375 59.5 C17.63762419 59.87426934 15.30913742 60.00765233 12.57714844 59.95410156 C11.79627869 59.95468567 11.01540894 59.95526978 10.21087646 59.95587158 C7.63492065 59.95308923 5.06012815 59.92199135 2.484375 59.890625 C0.6964786 59.88316312 -1.09142599 59.87746994 -2.8793335 59.87347412 C-7.58132574 59.85821357 -12.28282246 59.81892824 -16.98461914 59.7746582 C-21.78394874 59.73371452 -26.58335853 59.71546504 -31.3828125 59.6953125 C-40.79709252 59.65243431 -50.21100503 59.58417794 -59.625 59.5 C-59.01355368 61.57461739 -58.39497933 63.64713477 -57.7734375 65.71875 C-57.42974121 66.87310547 -57.08604492 68.02746094 -56.73193359 69.21679688 C-54.16922896 76.81786699 -50.02394906 82.55079435 -42.8515625 86.46875 C-34.63498798 90.0907502 -26.17304038 89.05120203 -17.81640625 86.44921875 C-15.44714575 85.42296153 -13.67444533 84.05340124 -11.625 82.5 C-10.965 82.5 -10.305 82.5 -9.625 82.5 C-9.356875 81.9225 -9.08875 81.345 -8.8125 80.75 C-7.55904676 78.37503596 -6.44968002 76.47953082 -4.625 74.5 C-2.29663086 74.01416016 -2.29663086 74.01416016 0.41015625 74.0390625 C1.87098633 74.04486328 1.87098633 74.04486328 3.36132812 74.05078125 C4.37646484 74.07527344 5.39160156 74.09976563 6.4375 74.125 C7.96600586 74.12693359 7.96600586 74.12693359 9.52539062 74.12890625 C17.09419014 74.21919014 17.09419014 74.21919014 19.375 76.5 C20.22708051 84.73677824 17.46364772 90.06610726 12.5 96.5 C3.62310822 106.15623346 -11.10603946 112.42439002 -24.0625 113.03125 C-26.24999988 113.04169153 -28.43769732 113.03117296 -30.625 113 C-31.71039063 113.01546875 -32.79578125 113.0309375 -33.9140625 113.046875 C-48.41679178 112.97764956 -61.71759979 107.27228784 -72.375 97.4375 C-86.35298879 82.49551198 -89.53091315 65.44570942 -89.01171875 45.65625 C-88.67942216 38.695842 -87.52553777 32.88694576 -84.625 26.5 C-84.29757812 25.65308594 -83.97015625 24.80617188 -83.6328125 23.93359375 C-77.83905025 10.42186355 -65.23481996 0.09440753 -52.0234375 -5.67578125 C-34.75838069 -11.60888709 -15.29813362 -10.26614841 0 0 Z " fill="#7857FE" transform="translate(540.625,755.5)"/>
<path d="M0 0 C13.15923551 -0.65476779 25.7881486 4.07003871 36.03125 12.27734375 C45.86507332 21.25401924 52.63612694 33.06425241 53.3671875 46.5390625 C53.69680399 62.63263288 49.91243775 75.72228397 38.96875 87.96484375 C27.79735659 98.47610937 13.53952301 102.70991193 -1.5 102.5546875 C-14.90274919 101.48307129 -27.42477198 94.9988461 -36.60546875 85.3203125 C-46.07988381 73.12102435 -50.12718307 59.6311789 -48.96875 44.27734375 C-46.76771628 30.75670801 -40.05360441 18.48492085 -28.96875 10.27734375 C-19.84981248 4.42803297 -10.76086951 1.00529176 0 0 Z " fill="#7959FE" transform="translate(521.96875,156.72265625)"/>
<path d="M0 0 C1.81564453 -0.02513672 1.81564453 -0.02513672 3.66796875 -0.05078125 C6.8125 0.3125 6.8125 0.3125 8.48413086 1.49316406 C10.30721011 3.99005554 10.20029303 5.71169352 10.2109375 8.78515625 C10.21480469 9.84927734 10.21867187 10.91339844 10.22265625 12.00976562 C10.21105469 13.12029297 10.19945312 14.23082031 10.1875 15.375 C10.19910156 16.48939453 10.21070313 17.60378906 10.22265625 18.75195312 C10.21878906 19.81478516 10.21492188 20.87761719 10.2109375 21.97265625 C10.20755371 22.94855713 10.20416992 23.92445801 10.20068359 24.92993164 C10.00853271 26.10930298 10.00853271 26.10930298 9.8125 27.3125 C6.64829293 29.42197138 5.80053318 29.56651405 2.171875 29.62109375 C1.26566406 29.64623047 0.35945313 29.67136719 -0.57421875 29.69726562 C-2.46738475 29.73213294 -4.36061995 29.76344349 -6.25390625 29.79101562 C-12.01348318 29.95801892 -16.04244845 30.70665135 -21.1875 33.3125 C-22.1775 33.6425 -23.1675 33.9725 -24.1875 34.3125 C-25.21401373 36.02769747 -25.21401373 36.02769747 -26.1875 38.3125 C-27.20450847 40.06175458 -28.24123088 41.79793995 -29.28515625 43.53125 C-31.24755575 47.40507759 -31.31939371 51.09949632 -31.34521484 55.39453125 C-31.36060806 57.23664185 -31.36060806 57.23664185 -31.37631226 59.1159668 C-31.37975018 59.76914886 -31.3831881 60.42233093 -31.38673019 61.0953064 C-31.3985628 63.14672337 -31.41802451 65.19793393 -31.43984985 67.24926758 C-31.50133353 73.07984555 -31.55554918 78.91039837 -31.58886719 84.74121094 C-31.60981808 88.31216185 -31.64511717 91.8827291 -31.68962479 95.45346069 C-31.70377431 96.81215908 -31.71250488 98.17092525 -31.71567917 99.5296936 C-31.72059051 101.4300351 -31.74536312 103.33029379 -31.77099609 105.23046875 C-31.77908295 106.31094482 -31.7871698 107.3914209 -31.79550171 108.50463867 C-32.23659303 111.66415055 -32.96110491 113.05707186 -35.1875 115.3125 C-37.68359375 115.81420898 -37.68359375 115.81420898 -40.625 115.80859375 C-41.68460937 115.80923828 -42.74421875 115.80988281 -43.8359375 115.81054688 C-44.94195312 115.79056641 -46.04796875 115.77058594 -47.1875 115.75 C-48.29351562 115.75708984 -49.39953125 115.76417969 -50.5390625 115.77148438 C-58.6711995 115.70717916 -58.6711995 115.70717916 -60.81969643 114.06478882 C-62.55071148 111.84719093 -62.5644504 110.66517224 -62.56845093 107.87182617 C-62.5769104 106.96330902 -62.58536987 106.05479187 -62.59408569 105.1187439 C-62.588013 104.1243631 -62.58194031 103.1299823 -62.57568359 102.10546875 C-62.58094055 101.05646393 -62.58619751 100.00745911 -62.59161377 98.92666626 C-62.60484313 95.45096043 -62.59606504 91.97571068 -62.5859375 88.5 C-62.58795738 86.09008699 -62.5908681 83.68017458 -62.59463501 81.27026367 C-62.59906236 76.21624947 -62.59261395 71.16239419 -62.57861328 66.10839844 C-62.56152137 59.62140759 -62.57136033 53.13478907 -62.58933067 46.64781189 C-62.60015731 41.67050355 -62.59672728 36.69328387 -62.5889473 31.7159729 C-62.5869422 29.32369951 -62.58941536 26.93141813 -62.59638596 24.53915405 C-62.60398184 21.19906202 -62.59242182 17.85957786 -62.57568359 14.51953125 C-62.58175629 13.52515045 -62.58782898 12.53076965 -62.59408569 11.5062561 C-62.58562622 10.59773895 -62.57716675 9.6892218 -62.56845093 8.75317383 C-62.56731985 7.96340652 -62.56618877 7.17363922 -62.56502342 6.35993958 C-62.0900394 3.78393761 -61.23771604 2.89646409 -59.1875 1.3125 C-55.71783937 0.68120181 -52.20818122 0.84907798 -48.6875 0.875 C-47.72457031 0.85501953 -46.76164062 0.83503906 -45.76953125 0.81445312 C-44.84527344 0.81509766 -43.92101562 0.81574219 -42.96875 0.81640625 C-41.7012793 0.81362671 -41.7012793 0.81362671 -40.40820312 0.81079102 C-38.1875 1.3125 -38.1875 1.3125 -36.43432617 3.11401367 C-34.64317687 6.27228652 -34.36562556 9.51358406 -34 13.0625 C-33.91814453 13.75988281 -33.83628906 14.45726562 -33.75195312 15.17578125 C-33.55272867 16.88676776 -33.36860071 18.59950037 -33.1875 20.3125 C-30.24326889 17.42344187 -27.47497693 14.5124716 -24.875 11.3125 C-18.17769388 3.5960386 -10.23923513 0.03292359 0 0 Z " fill="#7757FE" transform="translate(431.1875,749.6875)"/>
<path d="M0 0 C7.7784546 5.03311768 10.8960403 13.21177894 13 22 C14.09445705 34.85350722 13.25655346 48.07963585 4.64453125 58.4140625 C-1.7898867 64.61922565 -9.01361385 65.42094504 -17.6015625 65.34375 C-24.27581816 64.66865288 -29.03968896 61.83246466 -33.875 57.3125 C-40.9804453 46.23636468 -42.81966476 33.36867399 -40.31640625 20.48046875 C-37.98308379 12.16377168 -34.80754225 6.01430428 -28 0.625 C-19.12749702 -4.18093911 -9.03996222 -4.89830552 0 0 Z " fill="#FDFDFE" transform="translate(650,774)"/>
<path d="M0 0 C0.40259945 8.81245472 0.39164526 16.47780632 -5.0625 23.75 C-14.83195136 31.23298402 -24.84076479 33.20768928 -37 32 C-41.56638126 30.3996972 -44.18507161 28.08657118 -47.0625 24.25 C-48.32715233 19.86587191 -48.52563314 16.34338415 -47 12 C-42.08205526 5.61772339 -34.83865931 3.12401392 -27.12890625 2.05078125 C-24.94137252 1.79365703 -22.75248548 1.54783021 -20.5625 1.3125 C-19.46873047 1.18294922 -18.37496094 1.05339844 -17.24804688 0.91992188 C-11.46036873 0.26136006 -5.82384077 -0.14860347 0 0 Z " fill="#FCFBFE" transform="translate(786,813)"/>
<path d="M0 0 C6.97088222 3.72218805 11.60902848 10.06142193 14 17.5 C14.495 21.46 14.495 21.46 15 25.5 C-2.82 25.5 -20.64 25.5 -39 25.5 C-37.79754639 15.88037111 -35.60517813 8.94032452 -27.94140625 2.75390625 C-19.56207868 -2.65809405 -9.45178429 -3.66032955 0 0 Z " fill="#FBF9FE" transform="translate(521,771.5)"/>
<path d="M0 0 C0 3 0 3 -1.72265625 4.98046875 C-2.88087891 6.07294922 -2.88087891 6.07294922 -4.0625 7.1875 C-7.81885302 10.79596511 -11.2224398 14.51476236 -14.4921875 18.56640625 C-16 20 -16 20 -19 20 C-6.51480638 6.3667426 -6.51480638 6.3667426 0 0 Z " fill="#6A42FE" transform="translate(641,546)"/>
<path d="M0 0 C0.99 0.33 1.98 0.66 3 1 C3.05447047 2.41623216 3.09300508 3.83308191 3.125 5.25 C3.14820313 6.03890625 3.17140625 6.8278125 3.1953125 7.640625 C2.9828378 10.20731941 2.28654105 11.7916067 1 14 C0.67 14 0.34 14 0 14 C0 9.38 0 4.76 0 0 Z " fill="#8264FE" transform="translate(295,416)"/>
<path d="M0 0 C0 0.66 0 1.32 0 2 C-0.87011719 2.18175781 -0.87011719 2.18175781 -1.7578125 2.3671875 C-6.28028442 3.33735474 -10.63750966 4.43397783 -15 6 C-11.31946413 1.45345569 -5.73670284 -0.52151844 0 0 Z " fill="#6842FE" transform="translate(427,232)"/>
<path d="M0 0 C0.33 0.66 0.66 1.32 1 2 C0.21625 2.2475 -0.5675 2.495 -1.375 2.75 C-4.32317108 4.15389099 -4.9024777 5.00675737 -6 8 C-6.66 7.34 -7.32 6.68 -8 6 C-5.36 4.02 -2.72 2.04 0 0 Z " fill="#6942FF" transform="translate(267,123)"/>
<path d="M0 0 C0.66 0.33 1.32 0.66 2 1 C-0.31 2.65 -2.62 4.3 -5 6 C-5.66 5.34 -6.32 4.68 -7 4 C-1.7265625 0.77734375 -1.7265625 0.77734375 0 0 Z " fill="#6641FF" transform="translate(731,801)"/>
</svg>
